<?xml version="1.0" encoding="iso-8859-1"?>
<!-- Generator: Adobe Illustrator 21.1.0, SVG Export Plug-In . SVG Version: 6.00 Build 0)  -->
<svg version="1.1" id="Layer_1" xmlns="http://www.w3.org/2000/svg" xmlns:xlink="http://www.w3.org/1999/xlink" x="0px" y="0px"
	 viewBox="0 0 100 100" style="enable-background:new 0 0 100 100;" xml:space="preserve">
<g>
	<circle style="fill:none;stroke:#000000;stroke-width:1.6756;stroke-dasharray:2.7926;" cx="50" cy="50" r="48"/>
	<linearGradient id="SVGID_1_" gradientUnits="userSpaceOnUse" x1="7.229" y1="49.5694" x2="92.5617" y2="49.5694">
		<stop  offset="0" style="stop-color:#EEF3F5"/>
		<stop  offset="0.77" style="stop-color:#D2DBE0"/>
		<stop  offset="1" style="stop-color:#D5DDE2"/>
	</linearGradient>
	<path style="fill:url(#SVGID_1_);" d="M84.895,25.173C71.423,5.843,44.831,1.096,25.499,14.57
		C6.171,28.043,1.423,54.632,14.895,73.964c13.471,19.332,40.063,24.079,59.394,10.606C93.62,71.096,98.369,44.502,84.895,25.173z"
		/>
	<g>
		<linearGradient id="SVGID_2_" gradientUnits="userSpaceOnUse" x1="50.6505" y1="44.204" x2="50.6505" y2="75.6211">
			<stop  offset="0.0056" style="stop-color:#ED2A2A"/>
			<stop  offset="0.5" style="stop-color:#EE3E3A"/>
			<stop  offset="0.9944" style="stop-color:#BE2427"/>
		</linearGradient>
		<path style="fill:url(#SVGID_2_);" d="M72.249,44.204H29.053c-5.4,0-9.818,4.418-9.818,9.818v11.126
			c0,5.764,4.713,10.474,10.474,10.474h41.887c5.759,0,10.471-4.71,10.471-10.474V54.022C82.066,48.622,77.649,44.204,72.249,44.204
			z"/>
		<g>
			
				<linearGradient id="SVGID_3_" gradientUnits="userSpaceOnUse" x1="-109.9018" y1="-101.6176" x2="-109.9018" y2="-107.1818" gradientTransform="matrix(1 0 0 -1 148.7305 259.0391)">
				<stop  offset="0" style="stop-color:#FFFFFF"/>
				<stop  offset="1" style="stop-color:#000000"/>
			</linearGradient>
			<polygon style="fill:url(#SVGID_3_);" points="32.794,19.994 36.419,19.994 38.755,28.469 38.981,28.469 41.206,19.994 
				44.864,19.994 40.676,32.401 40.676,41.197 37.078,41.197 37.078,32.798 			"/>
			
				<linearGradient id="SVGID_4_" gradientUnits="userSpaceOnUse" x1="-98.9708" y1="-101.6011" x2="-98.9708" y2="-107.165" gradientTransform="matrix(1 0 0 -1 148.7305 259.0391)">
				<stop  offset="0" style="stop-color:#FFFFFF"/>
				<stop  offset="1" style="stop-color:#000000"/>
			</linearGradient>
			<path style="fill:url(#SVGID_4_);" d="M45.122,29.134c0-1.215,0.429-2.179,1.292-2.897c0.858-0.717,2.017-1.076,3.469-1.076
				c1.322,0,2.405,0.379,3.254,1.136c0.84,0.756,1.262,1.732,1.262,2.925v8.08c0,1.339-0.414,2.385-1.238,3.149
				c-0.834,0.761-1.972,1.143-3.423,1.143c-1.398,0-2.517-0.396-3.356-1.179c-0.839-0.786-1.259-1.845-1.259-3.173V29.134z
				 M48.411,37.535c0,0.429,0.115,0.759,0.341,0.996c0.227,0.236,0.553,0.352,0.974,0.352c0.434,0,0.778-0.121,1.032-0.359
				c0.257-0.241,0.383-0.571,0.383-0.989v-8.522c0-0.341-0.13-0.617-0.389-0.828c-0.261-0.211-0.601-0.315-1.026-0.315
				c-0.389,0-0.706,0.104-0.951,0.315c-0.242,0.211-0.364,0.487-0.364,0.828V37.535z"/>
			
				<linearGradient id="SVGID_5_" gradientUnits="userSpaceOnUse" x1="-87.1812" y1="-101.6337" x2="-87.1812" y2="-107.1982" gradientTransform="matrix(1 0 0 -1 148.7305 259.0391)">
				<stop  offset="0" style="stop-color:#FFFFFF"/>
				<stop  offset="1" style="stop-color:#000000"/>
			</linearGradient>
			<path style="fill:url(#SVGID_5_);" d="M66.109,25.555v15.643h-3.199V39.47c-0.583,0.635-1.197,1.124-1.837,1.455
				c-0.636,0.332-1.253,0.499-1.851,0.499c-0.744,0-1.296-0.235-1.672-0.7c-0.372-0.466-0.561-1.164-0.561-2.096V25.555h3.191
				v11.992c0,0.373,0.074,0.639,0.207,0.803c0.13,0.168,0.349,0.252,0.648,0.252c0.234,0,0.533-0.112,0.893-0.33
				c0.356-0.221,0.686-0.501,0.981-0.844V25.555H66.109z"/>
		</g>
		<g>
			
				<linearGradient id="SVGID_6_" gradientUnits="userSpaceOnUse" x1="-109.9027" y1="240.3603" x2="-109.9027" y2="219.1573" gradientTransform="matrix(1 0 0 -1 148.7314 259.0391)">
				<stop  offset="0" style="stop-color:#525151"/>
				<stop  offset="0.9944" style="stop-color:#363534"/>
			</linearGradient>
			<polygon style="fill:url(#SVGID_6_);" points="32.794,18.679 36.419,18.679 38.755,27.154 38.981,27.154 41.206,18.679 
				44.864,18.679 40.676,31.084 40.676,39.882 37.078,39.882 37.078,31.483 			"/>
			
				<linearGradient id="SVGID_7_" gradientUnits="userSpaceOnUse" x1="-98.9717" y1="235.1941" x2="-98.9717" y2="218.7624" gradientTransform="matrix(1 0 0 -1 148.7314 259.0391)">
				<stop  offset="0" style="stop-color:#525151"/>
				<stop  offset="0.9944" style="stop-color:#363534"/>
			</linearGradient>
			<path style="fill:url(#SVGID_7_);" d="M45.122,27.817c0-1.213,0.429-2.178,1.292-2.895c0.858-0.718,2.017-1.078,3.469-1.078
				c1.322,0,2.405,0.379,3.254,1.136c0.84,0.756,1.262,1.733,1.262,2.926v8.079c0,1.339-0.414,2.385-1.238,3.15
				c-0.834,0.76-1.972,1.141-3.423,1.141c-1.398,0-2.517-0.395-3.356-1.18c-0.839-0.785-1.259-1.844-1.259-3.172V27.817z
				 M48.411,36.22c0,0.43,0.115,0.76,0.341,0.995c0.227,0.237,0.553,0.353,0.974,0.353c0.434,0,0.778-0.12,1.032-0.358
				c0.257-0.241,0.383-0.571,0.383-0.99v-8.521c0-0.342-0.13-0.617-0.389-0.829c-0.261-0.209-0.601-0.314-1.026-0.314
				c-0.389,0-0.706,0.105-0.951,0.314c-0.242,0.212-0.364,0.488-0.364,0.829V36.22z"/>
			
				<linearGradient id="SVGID_8_" gradientUnits="userSpaceOnUse" x1="-87.1821" y1="234.7992" x2="-87.1821" y2="218.9308" gradientTransform="matrix(1 0 0 -1 148.7314 259.0391)">
				<stop  offset="0" style="stop-color:#525151"/>
				<stop  offset="0.9944" style="stop-color:#363534"/>
			</linearGradient>
			<path style="fill:url(#SVGID_8_);" d="M66.109,24.24v15.642h-3.199v-1.728c-0.583,0.635-1.197,1.123-1.837,1.455
				c-0.636,0.333-1.253,0.499-1.851,0.499c-0.744,0-1.296-0.233-1.672-0.7c-0.372-0.465-0.561-1.164-0.561-2.096V24.24h3.191v11.992
				c0,0.371,0.074,0.638,0.207,0.803c0.13,0.166,0.349,0.25,0.648,0.25c0.234,0,0.533-0.11,0.893-0.329
				c0.356-0.22,0.686-0.499,0.981-0.842V24.24H66.109z"/>
		</g>
		<g>
			<linearGradient id="SVGID_9_" gradientUnits="userSpaceOnUse" x1="34.9882" y1="49.9688" x2="34.9882" y2="70.3413">
				<stop  offset="0.0056" style="stop-color:#F59176"/>
				<stop  offset="0.9944" style="stop-color:#AA1F20"/>
			</linearGradient>
			<polygon style="fill:url(#SVGID_9_);" points="40.879,47.451 29.097,47.451 29.097,52.211 32.407,52.211 32.407,68.662 
				37.57,68.662 37.57,52.211 40.879,52.211 			"/>
			<linearGradient id="SVGID_10_" gradientUnits="userSpaceOnUse" x1="45.1977" y1="49.9685" x2="45.1977" y2="70.342">
				<stop  offset="0.0056" style="stop-color:#F59176"/>
				<stop  offset="0.9944" style="stop-color:#AA1F20"/>
			</linearGradient>
			<path style="fill:url(#SVGID_10_);" d="M45.43,63.87c-0.133,0.124-0.276,0.234-0.426,0.326c-0.015,0.009-0.026,0.017-0.042,0.025
				V52.496h-4.8v12.857c0,1.074,0.23,1.893,0.709,2.512c0.364,0.458,1.051,1.005,2.254,1.005c0.702,0,1.412-0.193,2.107-0.567
				c0.067-0.037,0.133-0.072,0.199-0.109v0.468h4.803V52.496H45.43V63.87z"/>
			<linearGradient id="SVGID_11_" gradientUnits="userSpaceOnUse" x1="60.3881" y1="49.9688" x2="60.3881" y2="70.3414">
				<stop  offset="0.0056" style="stop-color:#F59176"/>
				<stop  offset="0.9944" style="stop-color:#AA1F20"/>
			</linearGradient>
			<path style="fill:url(#SVGID_11_);" d="M70.373,61.899v-4.601c0-1.606-0.446-2.878-1.325-3.779
				c-0.884-0.912-2.132-1.375-3.7-1.375c-1.525,0-2.8,0.482-3.789,1.437c-0.546,0.528-0.93,1.146-1.178,1.836
				c-0.145-0.716-0.395-1.331-0.771-1.81c-0.458-0.585-1.321-1.282-2.83-1.282c-0.522,0-1.04,0.114-1.544,0.342v-5.216h-4.832v21.21
				h4.832v-0.138c0.51,0.211,1.087,0.318,1.716,0.318c1.427,0,2.247-0.63,2.684-1.156c0.392-0.473,0.644-1.077,0.777-1.78
				c0.228,0.632,0.561,1.189,1.003,1.661c0.916,0.985,2.169,1.482,3.718,1.482c1.688,0,2.998-0.471,3.89-1.396
				c0.896-0.921,1.349-2.258,1.349-3.976v-1.71h-4.884v1.63c0,0.654-0.065,0.934-0.053,0.982c-0.045,0.011-0.148,0.031-0.37,0.045
				c-0.005-0.008-0.121-0.224-0.121-1.027v-1.697H70.373z M64.944,57.275c0-0.484,0.075-0.651,0.064-0.654
				c0.016-0.007,0.079-0.027,0.218-0.027l0.167,0.006c0,0.001,0.094,0.162,0.094,0.676v0.453h-0.544V57.275z M55.642,64.354
				c0,0.221-0.027,0.331-0.033,0.331c-0.002,0-0.002-0.012,0.002-0.033c-0.095,0-0.181-0.02-0.279-0.065
				c-0.02-0.009-0.097-0.056-0.097-0.056v-7.932c0.012-0.006,0.021-0.011,0.033-0.015c0.055-0.03,0.109-0.042,0.172-0.042
				l0.123,0.006c0.021,0.027,0.079,0.165,0.079,0.473V64.354z"/>
		</g>
		<g>
			<path style="fill:#FFFFFF;" d="M39.897,48.432H30.08v2.795h3.309v16.453h3.199V51.228h3.309V48.432z"/>
			<path style="fill:#FFFFFF;" d="M46.413,64.266c-0.269,0.306-0.561,0.562-0.883,0.759c-0.319,0.2-0.585,0.301-0.79,0.301
				c-0.265,0-0.461-0.075-0.583-0.229c-0.115-0.147-0.177-0.389-0.177-0.725V53.478h-2.837v11.874c0,0.847,0.167,1.476,0.497,1.902
				c0.336,0.424,0.826,0.632,1.484,0.632c0.534,0,1.083-0.148,1.648-0.451c0.57-0.302,1.112-0.736,1.64-1.317v1.562h2.837V53.478
				h-2.837V64.266z"/>
			<path style="fill:#FFFFFF;" d="M58.836,54.211c-0.472-0.601-1.157-0.905-2.056-0.905c-0.44,0-0.877,0.111-1.31,0.336
				c-0.426,0.222-0.833,0.558-1.217,0.985v-6.195h-2.867v19.248h2.867v-1.089c0.371,0.436,0.778,0.754,1.213,0.961
				c0.432,0.208,0.927,0.309,1.485,0.309c0.839,0,1.487-0.267,1.929-0.803c0.444-0.537,0.667-1.31,0.667-2.315v-7.88
				C59.548,55.702,59.312,54.817,58.836,54.211z M56.623,64.354c0,0.457-0.085,0.779-0.245,0.978
				c-0.166,0.202-0.418,0.302-0.767,0.302c-0.24,0-0.466-0.052-0.684-0.152c-0.22-0.1-0.446-0.271-0.674-0.501v-8.848
				c0.195-0.198,0.388-0.343,0.587-0.434c0.196-0.095,0.398-0.137,0.601-0.137c0.381,0,0.678,0.121,0.884,0.369
				c0.201,0.246,0.299,0.611,0.299,1.092V64.354z"/>
			<path style="fill:#FFFFFF;" d="M69.39,60.918v-3.62c0-1.345-0.347-2.378-1.044-3.094c-0.699-0.719-1.697-1.079-2.998-1.079
				c-1.272,0-2.302,0.387-3.106,1.162c-0.803,0.776-1.208,1.784-1.208,3.011v6.379c0,1.367,0.37,2.441,1.098,3.221
				c0.729,0.78,1.732,1.169,3.002,1.169c1.416,0,2.478-0.364,3.186-1.098c0.718-0.737,1.069-1.836,1.069-3.292v-0.729h-2.92v0.648
				c0,0.835-0.098,1.372-0.283,1.617c-0.188,0.247-0.516,0.369-0.986,0.369c-0.454,0-0.773-0.141-0.963-0.431
				c-0.186-0.289-0.276-0.808-0.276-1.555v-2.678H69.39z M63.962,57.275c0-0.594,0.093-1.024,0.293-1.274
				c0.198-0.262,0.52-0.39,0.972-0.39c0.432,0,0.752,0.128,0.944,0.39c0.198,0.25,0.299,0.68,0.299,1.274v1.433h-2.508V57.275z"/>
		</g>
	</g>
</g>
</svg>
